# xmcd CD database file
#
# Track frame offsets:
#	150
#	13780
#	27490
#	39417
#	53652
#	72992
#	87077
#	106467
#	126097
#	139317
#	161330
#	180322
#	198402
#	221032
#	238140
#	262387
#	272452
#
# Disc length: 3829 seconds
#
# Revision: 0
# Processed by: cddbd v1.4PL0 Copyright (c) Steve Scherf et al.
# Submitted via: CDex 1.50beta10
#
DISCID=f60ef311
DTITLE=Various Artist - Chicago Blues Legends - Chicago Blues Session, Vol. 17
DYEAR=1998
DGENRE=Blues
TTITLE0=Dave Myers - You Can't Love Me That Way
TTITLE1=Dave Myers - Bring My Love Down By The Pound
TTITLE2=Dave Myers - Elevate Me Baby
TTITLE3=Dave Myers - Someday Baby
TTITLE4=Detroit Junior - Race Track
TTITLE5=Detroit Junior - So Unhappy
TTITLE6=Detroit Junior - You've Been Laid
TTITLE7=Mac Thompson - I Love You Baby
TTITLE8=Mac Thompson - Big Boss Man
TTITLE9=Jimmy Lee Robinson - I Shot A Man
TTITLE10=Jimmy Lee Robinson - Rosa Lee
TTITLE11=Jimmy Lee Robinson - Wagon Wheel
TTITLE12=Willie Johnson - Anna Lee
TTITLE13=Willie Johnson - Gonna Ride
TTITLE14=Willie Johnson - Rocky Mountain
TTITLE15=Floyd Jones - Take A Little Walk With Me
TTITLE16=Floyd Jones - Stockyard Blues
EXTD=YEAR: 1998
EXTT0=
EXTT1=
EXTT2=
EXTT3=
EXTT4=
EXTT5=
EXTT6=
EXTT7=
EXTT8=
EXTT9=
EXTT10=
EXTT11=
EXTT12=
EXTT13=
EXTT14=
EXTT15=
EXTT16=
PLAYORDER=
